<?xml version="1.0" standalone="no"?>
<!DOCTYPE svg PUBLIC "-//W3C//DTD SVG 20010904//EN"
 "http://www.w3.org/TR/2001/REC-SVG-20010904/DTD/svg10.dtd">
<svg version="1.0" xmlns="http://www.w3.org/2000/svg"
 width="300.000000pt" height="139.000000pt" viewBox="0 0 300.000000 139.000000"
 preserveAspectRatio="xMidYMid meet">
<metadata>
Created by potrace 1.10, written by Peter Selinger 2001-2011
</metadata>
<g transform="translate(0.000000,139.000000) scale(0.100000,-0.100000)"
fill="#000000" stroke="none">
<path d="M985 1210 c-3 -6 -48 -10 -101 -10 -99 0 -110 -5 -140 -56 -10 -17
-13 -16 -46 19 -34 36 -38 37 -105 37 -57 0 -73 -4 -88 -20 -17 -19 -16 -26
30 -222 26 -112 53 -213 61 -225 12 -18 11 -26 -1 -50 -8 -15 -15 -37 -15 -48
0 -17 -6 -14 -34 17 -41 44 -85 58 -192 58 -68 0 -84 -3 -99 -20 -21 -23 -84
-324 -85 -403 0 -42 4 -53 31 -78 29 -27 37 -29 109 -29 44 0 82 4 85 10 12
19 32 110 25 110 -4 0 -13 -21 -20 -47 -6 -26 -17 -51 -23 -55 -7 -4 -38 -8
-70 -8 -51 0 -61 4 -94 33 l-36 34 38 194 c21 107 42 204 46 217 8 20 14 22
94 22 98 0 135 -12 201 -66 44 -36 45 -37 39 -12 -7 26 8 67 29 80 7 5 6 16
-5 35 -20 34 -113 429 -104 443 3 6 37 10 75 10 59 0 73 -4 99 -25 16 -14 33
-35 37 -47 5 -18 10 -15 37 26 l30 48 86 -3 c62 -1 97 3 124 15 35 15 40 15
72 0 52 -24 98 -81 93 -114 l-4 -27 45 20 c51 22 123 19 164 -8 21 -14 27 -14
52 -1 16 8 34 29 41 45 13 30 15 31 77 31 58 0 65 -2 95 -33 18 -18 32 -39 32
-46 0 -9 6 -11 18 -6 124 53 178 46 266 -36 26 -23 46 -35 46 -28 0 8 5 30 10
50 l10 36 118 6 117 6 32 -31 c36 -35 36 -47 2 -125 -12 -30 -24 -43 -37 -43
-37 0 -60 -32 -77 -110 -9 -41 -21 -80 -27 -87 -7 -9 -7 -13 0 -13 17 0 29 28
41 93 13 70 26 97 49 97 33 0 61 30 76 84 22 75 21 83 -18 122 l-34 34 -119
-6 c-101 -5 -121 -9 -135 -26 -10 -11 -18 -29 -18 -39 0 -27 -8 -24 -47 16
-54 56 -143 70 -220 35 l-43 -19 -16 28 c-24 41 -65 61 -124 61 -55 0 -90 -13
-90 -34 0 -7 -9 -21 -20 -31 -20 -18 -23 -18 -68 -2 -57 21 -102 22 -147 3
-33 -14 -34 -14 -40 12 -7 30 -37 68 -75 95 -27 18 -105 23 -115 7z"/>
<path d="M1003 1165 c-41 -28 -29 -45 25 -38 56 7 59 9 46 31 -15 23 -44 26
-71 7z"/>
<path d="M545 1110 c11 -78 25 -143 35 -155 6 -7 14 -46 20 -86 11 -92 16
-107 48 -141 18 -19 36 -28 58 -28 30 0 37 8 149 188 120 191 134 227 102 259
-10 10 -24 -5 -70 -75 -31 -48 -67 -106 -79 -130 -13 -23 -45 -73 -73 -112
-40 -55 -55 -69 -76 -70 -32 0 -39 18 -39 101 0 43 4 58 16 63 27 10 124 7
124 -5 0 -14 18 -2 30 21 10 19 6 20 -82 19 -51 0 -100 3 -109 6 -18 7 -40 78
-34 110 2 11 4 23 4 28 1 4 19 7 40 7 30 0 41 4 43 18 4 18 28 -98 28 -136 0
-33 12 -27 40 18 33 54 85 94 143 110 68 18 68 30 -1 30 l-58 0 -39 -59 c-40
-61 -55 -63 -55 -10 0 45 -40 71 -110 73 l-60 1 5 -45z m213 -333 c2 -10 -3
-17 -12 -17 -18 0 -29 16 -21 31 9 14 29 6 33 -14z"/>
<path d="M1096 1144 c8 -33 -27 -68 -69 -68 -20 0 -33 -4 -31 -8 3 -4 23 -8
44 -8 l39 0 -10 -32 c-5 -18 -11 -53 -14 -78 -2 -25 -13 -76 -23 -115 l-18
-70 -52 -3 -53 -3 7 28 c10 39 51 118 69 133 11 9 18 10 28 1 16 -13 27 -5 27
20 0 14 -10 19 -42 21 -41 3 -43 4 -41 33 2 29 2 29 -7 6 -6 -13 -8 -32 -5
-41 3 -10 -1 -37 -9 -61 -8 -24 -20 -66 -26 -93 -10 -47 -10 -50 16 -78 24
-24 35 -28 85 -28 l56 0 12 58 c6 31 15 91 20 132 5 41 14 76 20 78 14 5 14
39 1 47 -6 4 -3 16 10 32 27 34 25 47 -10 85 -23 26 -28 28 -24 12z"/>
<path d="M1486 1095 c-5 -18 -18 -31 -36 -38 -18 -7 -30 -19 -30 -30 0 -16 -4
-15 -35 9 -64 48 -180 40 -231 -18 -15 -17 -10 -15 23 7 53 34 143 40 187 12
l27 -18 -25 -29 c-13 -16 -26 -35 -29 -42 -3 -9 -10 -6 -22 10 -21 28 -40 28
-70 -3 -52 -51 -23 -125 44 -112 21 5 30 0 43 -23 19 -34 14 -41 -46 -60 -52
-17 -105 0 -145 45 -17 20 -31 31 -31 25 0 -14 88 -108 114 -122 45 -24 176 0
176 33 0 38 -81 141 -95 120 -3 -6 -13 -11 -21 -11 -25 0 -12 43 19 60 25 14
30 13 57 -2 28 -16 29 -16 45 8 9 14 20 22 25 19 6 -4 10 1 10 9 0 9 -6 16
-14 16 -11 0 -12 8 -4 40 6 22 16 40 22 40 7 0 27 11 46 25 19 14 44 25 56 25
13 0 26 5 29 10 4 6 -6 10 -24 10 -16 0 -36 3 -44 6 -10 3 -17 -4 -21 -21z"/>
<path d="M1590 1108 c0 -9 -3 -23 -6 -32 -5 -12 0 -16 21 -16 24 0 26 -3 21
-22 -4 -13 -9 -35 -12 -50 -5 -20 -13 -28 -28 -28 -18 0 -24 -9 -33 -52 -13
-62 -9 -72 19 -57 19 10 20 9 14 -12 -3 -13 -9 -36 -12 -51 -6 -26 -10 -28
-54 -28 -33 0 -52 5 -63 18 -22 24 -21 40 3 96 21 50 42 65 64 47 11 -9 15 -8
20 5 13 34 7 41 -36 40 -42 -1 -43 -2 -60 -51 -10 -27 -18 -68 -18 -89 0 -34
6 -46 45 -83 39 -37 51 -43 88 -43 55 0 63 7 71 59 6 36 3 48 -14 66 -15 16
-19 29 -14 53 4 18 10 32 15 32 5 0 9 10 9 21 0 12 19 41 43 64 94 95 230 79
276 -33 30 -71 -40 -177 -132 -200 -58 -15 -100 -6 -137 28 -17 16 -30 25 -30
20 0 -4 22 -28 49 -53 47 -44 112 -73 142 -63 8 2 26 7 41 10 14 3 40 18 57
32 l31 26 26 -31 c23 -28 31 -31 84 -31 l58 0 10 48 c6 26 13 64 17 84 8 42
30 66 71 77 22 6 31 17 46 61 18 54 18 54 -4 77 -12 13 -24 23 -28 23 -4 0
-15 -26 -25 -59 -14 -43 -23 -57 -35 -54 -32 8 -60 -30 -84 -112 l-23 -80 -52
-3 -52 -3 8 63 c13 103 10 123 -27 165 -56 65 -96 85 -163 80 -39 -2 -66 -10
-88 -26 -29 -22 -31 -22 -50 -6 -10 10 -17 21 -14 25 2 4 -9 20 -25 35 -22 22
-30 25 -30 13z m355 -327 c0 -8 -12 -18 -27 -22 -25 -7 -26 -6 -16 17 12 26
43 29 43 5z"/>
<path d="M2177 1063 c-4 -3 -38 -5 -76 -4 -80 2 -83 -1 -85 -101 -1 -60 3 -68
24 -43 14 17 41 20 56 6 5 -5 17 2 30 18 l21 26 -61 0 c-66 0 -65 -2 -51 63 5
19 12 22 49 22 25 0 46 -4 48 -8 2 -4 23 0 48 9 27 11 37 18 24 18 -11 1 -24
-2 -27 -6z"/>
<path d="M1170 961 c-29 -4 -46 -11 -48 -22 -2 -12 5 -14 33 -11 23 3 35 0 35
-8 0 -7 9 -1 20 13 21 26 25 38 13 35 -5 0 -28 -4 -53 -7z"/>
<path d="M1699 963 c-43 -4 -47 -6 -53 -35 -3 -17 -5 -47 -5 -67 1 -37 3 -33
14 32 5 33 9 37 35 37 17 0 30 -5 30 -12 0 -7 9 -2 20 12 20 26 25 41 13 38
-5 -1 -29 -3 -54 -5z"/>
<path d="M1772 947 c-27 -29 -30 -82 -5 -91 11 -5 22 -1 30 11 7 10 17 23 23
30 18 22 8 73 -14 73 -7 0 -22 -10 -34 -23z"/>
<path d="M1847 932 c4 -23 0 -38 -12 -52 -11 -12 -13 -20 -6 -20 6 0 19 16 28
36 16 33 21 35 50 31 27 -5 33 -3 33 13 0 15 -9 19 -49 22 l-49 3 5 -33z"/>
<path d="M891 904 c-12 -19 -16 -32 -9 -28 8 5 9 -2 4 -27 -21 -105 -21 -106
17 -144 33 -33 38 -35 105 -35 62 0 73 3 86 22 9 12 16 34 16 47 0 25 1 25 38
-11 49 -47 92 -68 142 -68 49 0 109 24 131 51 l15 21 31 -26 c65 -55 149 -58
180 -8 9 15 18 29 20 31 1 2 16 -8 32 -22 17 -14 47 -31 67 -37 44 -15 127 -7
160 15 27 18 61 20 66 4 2 -7 33 -15 68 -19 36 -4 51 -8 34 -9 -22 -1 -37 -9
-49 -28 -10 -14 -29 -36 -43 -48 l-26 -23 -38 26 c-36 23 -45 25 -155 23 -123
-2 -153 -12 -153 -51 0 -30 -11 -29 -41 1 -73 75 -189 78 -264 8 -17 -16 -34
-29 -38 -29 -4 0 -23 15 -41 34 -41 41 -90 52 -156 35 -35 -9 -55 -9 -79 -1
-20 7 -61 9 -104 6 l-72 -6 -31 39 -32 39 49 83 c27 46 48 86 45 88 -2 3 -11
-8 -19 -24 -8 -15 -33 -55 -55 -88 l-41 -60 30 -30 c16 -17 29 -39 29 -49 0
-18 7 -19 91 -13 69 5 97 4 118 -8 25 -13 33 -12 69 2 58 22 104 11 158 -39
l44 -41 25 27 c31 33 100 66 140 66 40 0 102 -31 142 -69 18 -17 34 -31 37
-31 2 0 7 18 11 40 8 46 8 46 138 54 99 6 120 0 170 -43 l35 -31 10 30 c6 16
18 30 27 30 9 0 23 16 31 35 14 35 15 35 78 35 60 0 66 -2 94 -34 16 -19 32
-40 34 -47 3 -10 16 -8 56 9 28 12 62 22 77 22 37 0 90 -24 139 -65 l43 -35
18 87 c9 49 22 94 27 101 6 7 34 12 68 12 59 0 98 -19 120 -59 11 -21 -62
-414 -81 -437 -19 -23 -121 -18 -153 7 l-28 22 -36 -21 c-82 -45 -154 -37
-222 24 l-38 34 -6 -24 c-10 -41 -33 -56 -85 -56 -51 0 -83 18 -131 74 l-24
29 -8 -38 c-12 -57 -23 -65 -88 -65 -41 0 -64 5 -82 19 -24 19 -24 19 -36 0
-18 -28 -119 -27 -156 2 l-28 22 -37 -21 c-85 -48 -166 -34 -242 42 l-37 36
-6 -35 c-4 -19 -14 -41 -22 -50 -21 -20 -127 -21 -147 0 -13 13 -16 13 -27 0
-17 -20 -118 -20 -147 0 -18 13 -22 13 -33 0 -17 -21 -118 -20 -148 1 -20 14
-24 14 -38 0 -10 -11 -34 -16 -73 -16 -52 0 -60 3 -90 34 -30 31 -33 39 -28
76 4 32 2 39 -7 31 -7 -6 -30 -15 -52 -21 l-39 -10 40 5 40 4 1 -36 c0 -29 8
-43 35 -65 32 -28 38 -29 109 -24 41 2 80 4 85 4 309 -7 521 -5 532 4 7 6 13
21 13 34 0 35 13 36 45 2 58 -61 139 -74 226 -37 46 20 51 20 68 5 22 -20 141
-22 171 -4 15 10 22 10 32 0 16 -16 142 -16 156 1 6 6 14 25 18 41 l7 28 38
-40 c61 -62 162 -69 190 -14 7 15 14 29 16 31 1 1 20 -12 43 -30 55 -45 137
-52 203 -19 42 21 46 22 68 6 31 -22 151 -22 169 -1 13 16 90 381 90 425 -1
28 -13 46 -54 78 -22 17 -42 22 -86 22 -82 0 -97 -16 -112 -112 -7 -43 -15
-78 -19 -78 -4 0 -14 12 -24 26 -21 33 -89 63 -140 64 -23 0 -58 -9 -80 -20
l-39 -20 -23 27 c-12 16 -22 31 -23 35 0 12 -64 28 -134 34 -51 5 -80 13 -102
29 -30 23 -31 23 -55 4 -68 -51 -171 -44 -238 17 -46 41 -51 42 -51 10 0 -33
-35 -56 -86 -56 -34 0 -51 7 -86 36 -56 47 -67 68 -68 127 0 32 -4 46 -11 42
-6 -4 -8 -13 -5 -21 8 -20 -10 -26 -24 -9 -7 8 -9 15 -4 15 4 0 -1 6 -11 14
-35 25 -36 6 -1 -24 35 -31 72 -111 62 -135 -9 -24 -68 -48 -121 -48 -59 0
-97 18 -144 67 -19 20 -38 36 -42 36 -3 0 -9 -16 -12 -36 -9 -53 -23 -64 -79
-64 -56 0 -98 18 -121 53 -14 22 -14 32 2 115 10 51 17 92 15 92 -1 0 -11 -16
-23 -36z"/>
<path d="M636 664 c-16 -16 -21 -46 -10 -57 4 -3 16 5 27 19 16 20 26 25 48
20 17 -3 29 -1 33 7 2 7 5 3 5 -8 0 -11 -3 -25 -7 -31 -13 -21 -54 -36 -79
-29 -16 4 -22 2 -18 -5 3 -6 -3 -10 -14 -10 -12 0 -21 -4 -21 -10 0 -6 9 -6
26 0 14 6 41 10 61 10 32 0 35 -2 29 -22 -4 -13 -11 -50 -15 -83 -5 -33 -17
-90 -27 -127 l-18 -68 -49 0 -49 0 6 36 c4 19 10 43 13 52 4 12 3 14 -4 7 -6
-5 -15 -31 -21 -57 -9 -44 -8 -48 17 -72 23 -22 37 -26 84 -26 37 0 59 4 61
13 3 6 14 69 27 139 12 70 26 125 30 122 10 -6 0 25 -12 42 -5 6 0 17 11 27
29 24 25 59 -10 92 -16 16 -30 25 -30 20 0 -5 -5 -4 -12 3 -17 17 -64 15 -82
-4z m68 -370 c7 -19 -2 -37 -15 -29 -12 8 -12 45 0 45 5 0 12 -7 15 -16z"/>
<path d="M2630 648 c0 -13 -7 -43 -16 -67 -8 -25 -17 -73 -18 -108 -3 -59 -2
-62 14 -48 19 17 60 20 60 4 0 -5 5 -7 10 -4 6 3 10 15 10 26 0 16 -7 19 -45
19 -25 0 -45 4 -45 8 0 5 7 32 16 61 18 61 44 91 79 91 13 0 29 8 34 18 10 16
10 15 11 -3 0 -12 -7 -48 -16 -80 -9 -33 -16 -71 -16 -85 0 -25 -20 -117 -39
-178 -10 -30 -13 -32 -60 -32 -47 0 -48 1 -44 28 16 106 14 150 -8 182 -64 94
-152 122 -241 76 -50 -25 -76 -22 -76 8 0 7 -13 25 -29 40 l-29 27 -4 -30 c-4
-27 -2 -31 20 -31 22 0 24 -3 17 -32 -4 -18 -8 -40 -8 -48 -1 -8 -13 -17 -26
-20 -20 -4 -27 -14 -36 -58 -13 -55 -5 -73 20 -52 19 16 20 3 3 -51 -11 -38
-12 -39 -59 -39 -38 0 -51 5 -63 22 -21 29 -20 46 4 97 23 46 43 59 64 42 11
-9 15 -8 20 5 11 29 6 34 -37 34 l-44 0 -16 -60 c-26 -92 -23 -107 29 -157 43
-42 48 -44 97 -41 l52 3 8 47 c8 40 6 51 -11 73 -23 29 -20 48 18 120 38 72
92 106 164 107 67 1 96 -16 128 -74 19 -33 20 -41 9 -79 l-13 -42 -44 7 c-24
3 -44 4 -44 1 0 -2 16 -15 36 -28 l35 -25 -28 -19 c-85 -60 -188 -48 -228 26
-8 14 -14 22 -15 16 -1 -34 92 -122 144 -136 42 -12 106 3 149 33 l28 20 28
-26 c23 -22 36 -26 83 -26 l55 0 40 208 41 207 -21 23 c-17 18 -31 22 -84 22
-59 0 -63 -2 -63 -22z m-70 -342 c0 -24 -16 -27 -35 -6 -18 19 -17 20 8 20 17
0 27 -5 27 -14z"/>
<path d="M263 578 c-12 -46 -22 -97 -22 -115 0 -17 -9 -61 -20 -98 -27 -86
-26 -93 6 -127 23 -24 34 -28 84 -28 63 0 63 1 74 73 l7 45 53 4 c77 6 117 39
133 109 7 30 15 63 18 75 6 21 -52 109 -72 109 -5 1 -23 9 -41 18 -23 12 -56
17 -115 17 l-84 0 -21 -82z m188 41 c31 -16 62 -20 70 -8 4 7 12 -4 18 -24 15
-44 -2 -121 -33 -156 -28 -31 -76 -51 -124 -51 -39 0 -39 0 -52 -55 l-13 -55
-54 0 -55 0 8 33 c3 17 19 55 33 82 26 49 28 50 81 57 30 4 79 3 107 -1 45 -7
55 -5 69 11 17 17 13 18 -120 18 l-137 0 7 38 c9 56 38 106 65 113 38 11 109
10 130 -2z"/>
<path d="M365 524 c-3 -20 -5 -37 -3 -39 2 -2 16 -1 31 2 55 11 57 73 2 73
-18 0 -24 -7 -30 -36z"/>
<path d="M2075 600 c-4 -11 -20 -27 -36 -35 -16 -9 -29 -24 -29 -34 0 -11 -3
-28 -6 -38 -5 -15 -4 -15 5 -3 6 8 11 24 11 35 0 14 17 28 59 48 32 15 63 27
69 27 6 0 14 5 17 10 4 6 -11 10 -39 10 -36 0 -46 -4 -51 -20z"/>
<path d="M865 571 l-70 -6 55 -6 c30 -3 69 -2 85 1 37 8 94 -6 101 -25 5 -12
11 -11 32 5 43 30 112 30 141 -1 32 -35 35 -84 10 -181 l-23 -88 -52 0 -52 0
5 43 c2 23 9 66 14 96 12 72 12 71 -11 71 -24 0 -32 -16 -61 -127 l-21 -83
-50 0 -51 0 6 63 c4 34 9 81 13 105 6 38 5 42 -13 42 -22 0 -34 -23 -53 -100
-28 -115 -26 -112 -86 -108 -30 1 -54 1 -54 -1 0 -3 12 -18 27 -33 23 -24 34
-28 85 -28 55 0 58 1 58 25 0 14 4 25 8 25 5 0 19 -11 32 -25 20 -21 33 -25
82 -25 55 0 58 1 58 25 0 32 10 32 40 0 21 -23 31 -25 80 -23 l55 3 7 40 c8
41 20 175 20 208 -1 25 -51 82 -89 101 -39 20 -66 20 -108 0 -30 -14 -36 -14
-64 0 -31 16 -36 17 -156 7z m25 -276 c0 -8 0 -18 1 -22 0 -4 -4 -9 -10 -11
-6 -2 -11 8 -11 22 0 14 5 26 10 26 6 0 10 -7 10 -15z m180 -4 c7 -14 7 -22
-1 -27 -12 -7 -29 12 -29 34 0 19 18 14 30 -7z"/>
<path d="M1402 573 c-12 -3 -41 -21 -62 -42 -32 -31 -40 -45 -40 -75 0 -33 1
-35 20 -24 15 10 26 10 53 0 41 -15 90 -15 142 -1 29 8 40 8 43 0 7 -21 22
-11 22 14 0 23 -4 25 -45 25 -35 0 -43 -3 -39 -15 5 -12 -4 -15 -51 -15 -47 0
-56 3 -51 15 4 12 -4 15 -39 15 -25 0 -45 3 -45 8 1 13 34 49 63 67 32 20 122
24 155 6 38 -20 75 -89 68 -126 -9 -45 -28 -59 -71 -51 -19 4 -35 5 -35 2 0
-14 78 -56 103 -56 22 0 28 -4 23 -16 -3 -9 -6 -18 -6 -21 0 -2 -11 4 -25 15
-24 19 -24 19 -81 -9 -84 -42 -130 -36 -187 24 l-30 32 16 -32 c22 -42 83 -91
130 -104 44 -12 102 1 140 31 32 26 39 25 67 -5 20 -21 33 -25 80 -25 l56 0
18 95 c10 52 22 98 27 101 17 10 10 71 -8 78 -22 9 -40 -15 -54 -69 -5 -22
-17 -64 -25 -92 l-15 -53 -49 0 -50 0 5 45 c3 25 7 65 10 90 4 38 0 50 -28 87
-55 72 -119 97 -205 81z"/>
<path d="M1750 573 c-41 -2 -79 -8 -83 -12 -4 -4 -10 -41 -12 -81 -4 -68 -3
-71 14 -56 20 18 42 21 57 6 7 -7 14 -3 22 15 12 25 11 25 -39 25 l-50 0 7 38
c4 20 8 40 10 43 6 11 216 9 235 -1 9 -6 25 -29 33 -52 16 -41 16 -47 -7 -133
l-23 -90 -57 0 c-31 0 -57 -2 -57 -4 0 -3 12 -18 27 -33 23 -24 34 -28 83 -28
l57 0 12 52 c7 29 15 86 18 125 5 68 4 75 -22 113 -34 49 -83 81 -121 78 -16
-1 -63 -4 -104 -5z"/>
<path d="M1416 475 c-3 -9 -6 -17 -6 -18 0 -1 16 -2 35 -2 26 0 35 4 33 15 -4
21 -54 25 -62 5z"/>
<path d="M2356 474 c-3 -9 -6 -17 -6 -18 0 -1 16 -2 35 -2 26 1 35 5 35 19 0
23 -55 24 -64 1z"/>
<path d="M597 463 c-4 -3 -7 -18 -7 -32 1 -23 2 -24 11 -8 12 20 49 23 67 5 8
-8 12 -9 12 -1 0 6 3 18 6 27 5 13 -2 16 -38 16 -25 0 -48 -3 -51 -7z"/>
<path d="M776 448 c-3 -13 -6 -32 -6 -43 1 -18 2 -17 14 4 14 25 66 41 66 21
0 -17 17 -2 23 20 5 18 0 20 -43 20 -41 0 -49 -3 -54 -22z"/>
<path d="M950 438 c1 -27 2 -30 11 -15 11 19 49 23 65 7 7 -7 14 -3 22 15 l12
25 -55 0 -55 0 0 -32z"/>
<path d="M1130 445 c0 -22 2 -24 19 -13 15 9 25 9 45 0 14 -6 26 -8 26 -3 0 5
3 16 6 25 5 13 -2 16 -45 16 -48 0 -51 -2 -51 -25z"/>
<path d="M1846 456 c3 -8 1 -30 -4 -50 -13 -46 -7 -46 13 0 11 27 20 35 32 31
44 -12 48 -11 51 11 3 20 0 22 -47 22 -39 0 -49 -3 -45 -14z"/>
<path d="M2246 462 c-12 -20 -18 -92 -8 -92 6 0 12 15 14 33 3 35 -1 35 115
21 30 -3 67 -1 88 6 28 9 39 9 50 0 13 -10 15 -8 15 14 0 24 -3 26 -45 26 -35
0 -43 -3 -39 -15 5 -12 -4 -15 -51 -15 -47 0 -56 3 -51 15 4 12 -4 15 -39 15
-24 0 -46 -4 -49 -8z"/>
<path d="M1400 370 c0 -16 27 -23 55 -16 39 10 29 26 -15 26 -22 0 -40 -5 -40
-10z"/>
<path d="M2340 369 c0 -15 27 -22 55 -15 39 10 29 25 -15 24 -22 0 -40 -4 -40
-9z"/>
</g>
</svg>
